<?xml version="1.0" standalone="no"?>
<!DOCTYPE svg PUBLIC "-//W3C//DTD SVG 20010904//EN"
 "http://www.w3.org/TR/2001/REC-SVG-20010904/DTD/svg10.dtd">
<svg version="1.0" xmlns="http://www.w3.org/2000/svg"
 width="640.000000pt" height="640.000000pt" viewBox="0 0 640.000000 640.000000"
 preserveAspectRatio="xMidYMid meet">
<metadata>
Created by potrace 1.11, written by Peter Selinger 2001-2013
</metadata>
<g transform="translate(0.000000,640.000000) scale(0.100000,-0.100000)"
fill="#000000" stroke="none">
<path d="M3233 6242 c-7 -4 -27 -7 -45 -7 -18 1 -36 -4 -40 -9 -5 -8 -8 -7 -8
1 0 8 -9 9 -27 4 -16 -4 -34 -6 -40 -4 -7 3 -13 1 -13 -4 0 -4 -17 -8 -38 -9
-35 0 -113 -9 -157 -18 -11 -3 -28 -5 -38 -5 -11 -1 -15 -6 -11 -13 4 -7 3 -8
-4 -4 -16 10 -166 -43 -182 -65 -12 -16 -51 -19 -70 -6 -11 7 -18 16 -15 19 3
3 -14 2 -37 -2 -48 -7 -101 -32 -137 -64 -66 -58 -161 -159 -161 -172 0 -2 -8
-14 -18 -25 -11 -10 -25 -32 -33 -47 -7 -15 -24 -43 -36 -62 -12 -19 -23 -42
-25 -50 -2 -8 -6 -17 -9 -20 -3 -3 -27 -48 -54 -100 -26 -52 -53 -98 -59 -102
-6 -5 -7 -8 -1 -8 6 0 3 -6 -6 -13 -9 -7 -17 -15 -17 -19 -1 -5 -2 -9 -3 -10
0 -2 -2 -12 -4 -23 -2 -11 -9 -21 -15 -23 -5 -2 -8 -8 -4 -13 3 -5 0 -9 -5 -9
-6 0 -10 -3 -9 -7 1 -8 -12 -44 -31 -88 -8 -17 -20 -48 -26 -65 -1 -3 -5 -13
-9 -22 -4 -9 -5 -21 -2 -27 3 -5 2 -11 -4 -13 -5 -1 -12 -21 -16 -43 -3 -22
-11 -43 -18 -47 -7 -5 -6 -8 4 -8 9 0 11 -3 5 -8 -11 -8 -15 -20 -24 -77 -7
-46 -6 -303 1 -325 3 -8 8 -27 13 -42 4 -16 11 -28 16 -28 5 0 6 -7 3 -15 -4
-8 -1 -15 7 -15 7 0 9 -3 6 -7 -7 -7 11 -33 23 -33 4 0 10 7 14 15 3 8 0 14
-7 12 -7 -1 -11 6 -11 15 1 10 -2 16 -6 13 -10 -6 -32 54 -25 65 3 5 2 11 -3
14 -22 14 14 242 44 277 8 8 14 24 14 34 0 10 3 15 7 11 9 -9 14 -196 5 -196
-4 0 -7 -58 -6 -130 0 -99 -3 -131 -13 -134 -11 -4 -10 -10 4 -24 10 -10 21
-17 26 -15 4 2 7 -4 7 -15 0 -10 3 -22 7 -26 4 -3 8 -15 10 -26 5 -37 8 -45
15 -51 5 -3 9 -17 10 -32 1 -15 6 -27 10 -27 4 0 8 -9 8 -19 0 -11 4 -22 9
-25 5 -3 12 -21 15 -39 3 -18 15 -49 26 -70 11 -20 18 -37 15 -37 -4 0 5 -15
19 -33 30 -39 32 -55 11 -71 -14 -10 -22 -32 -30 -82 -2 -12 -12 -43 -24 -69
-11 -26 -18 -51 -15 -56 3 -5 0 -9 -5 -9 -6 0 -11 -9 -11 -20 0 -11 -5 -20
-11 -20 -6 0 -9 -6 -6 -14 3 -8 -1 -17 -10 -20 -9 -4 -13 -9 -9 -13 3 -3 -1
-15 -11 -25 -9 -10 -13 -18 -9 -18 4 0 1 -7 -6 -15 -31 -34 -38 -45 -31 -45 4
0 4 -4 -2 -8 -13 -9 -78 -102 -71 -102 3 0 -11 -17 -30 -37 -19 -21 -37 -46
-40 -55 -3 -10 -10 -18 -15 -18 -5 0 -14 -11 -19 -25 -5 -14 -14 -25 -19 -25
-5 0 -11 -8 -15 -17 -3 -10 -10 -25 -16 -33 -5 -8 -42 -73 -81 -145 -39 -71
-77 -134 -85 -138 -8 -5 -28 -22 -45 -38 -16 -16 -33 -29 -37 -29 -4 0 -21
-15 -37 -33 -20 -22 -43 -70 -68 -147 -21 -63 -41 -121 -44 -129 -4 -10 -1
-11 8 -5 12 6 12 5 1 -8 -7 -9 -15 -24 -17 -34 -27 -120 -59 -190 -89 -198
-14 -3 -26 -16 -30 -30 -6 -26 -35 -58 -115 -126 -28 -24 -48 -47 -45 -52 3
-5 2 -8 -3 -7 -20 3 -34 -2 -28 -11 3 -6 1 -10 -6 -10 -7 0 -32 -20 -55 -44
l-41 -44 15 -60 c11 -41 20 -58 29 -55 7 3 13 10 13 15 0 12 61 100 76 110 6
4 17 21 24 38 7 16 19 30 27 30 8 0 12 4 8 9 -3 6 3 15 14 20 27 15 30 14 24
-9 -3 -11 -10 -17 -17 -13 -8 5 -8 3 0 -8 9 -11 7 -27 -7 -69 -10 -30 -21 -68
-24 -84 -3 -15 -13 -42 -21 -58 -12 -23 -12 -28 -2 -22 10 6 11 5 1 -7 -7 -9
-14 -24 -16 -35 -1 -10 -7 -25 -11 -33 -7 -10 -6 -12 4 -6 10 6 11 4 4 -6 -9
-14 -11 -23 -18 -74 -7 -49 -18 -89 -29 -102 -6 -9 -5 -13 4 -13 10 0 11 -2 2
-8 -6 -4 -14 -21 -17 -37 -2 -17 -5 -30 -6 -30 -2 0 -8 -29 -17 -90 -9 -61 -9
-332 0 -400 4 -27 9 -68 11 -90 5 -37 12 -73 16 -85 1 -3 2 -9 1 -13 -2 -12
27 -94 48 -135 11 -20 35 -55 54 -77 31 -36 36 -38 53 -25 12 10 15 11 10 2
-6 -10 -1 -12 21 -8 15 2 30 5 33 7 3 1 10 3 15 4 34 9 55 18 55 26 0 5 7 9
15 9 9 0 39 12 67 28 28 15 62 33 77 41 14 8 29 18 32 23 3 5 15 10 27 11 11
0 19 4 16 8 -2 4 14 19 36 34 22 15 40 32 40 38 0 6 3 8 6 4 7 -7 70 53 67 64
-2 5 1 8 6 6 5 -1 31 25 58 59 27 33 83 95 125 136 42 42 73 79 70 83 -4 4 -2
5 5 3 6 -2 27 14 46 35 19 20 33 37 30 37 -2 0 10 12 29 27 18 15 36 32 40 38
5 6 8 4 9 -5 1 -8 3 -26 4 -40 2 -14 4 -45 5 -70 2 -25 5 -49 8 -54 3 -5 6
-34 9 -65 2 -31 5 -69 7 -86 18 -140 25 -188 37 -265 6 -36 12 -81 15 -100 2
-19 6 -42 9 -50 2 -8 7 -35 10 -60 3 -25 8 -63 11 -85 10 -67 12 -140 3 -145
-4 -3 -10 -17 -13 -30 -2 -14 -9 -45 -15 -69 -5 -25 -8 -48 -5 -52 2 -4 0 -10
-6 -14 -5 -3 -10 -19 -10 -34 0 -15 -3 -31 -7 -35 -4 -4 -9 -18 -10 -31 l-4
-25 1012 0 1011 0 -7 27 c-10 38 -11 277 -1 333 8 47 42 134 82 213 14 26 22
53 18 59 -4 7 -3 8 4 4 11 -6 16 6 13 27 0 4 3 7 8 7 8 0 29 47 28 60 -1 3 8
15 18 28 11 12 18 24 15 25 -7 3 33 67 43 67 4 0 6 4 3 9 -3 4 3 19 14 31 11
13 20 28 20 33 0 6 6 18 14 26 8 9 16 23 18 31 2 8 9 21 16 28 7 8 10 17 8 21
-3 4 1 8 9 8 13 0 24 -15 31 -42 1 -5 8 -23 15 -40 7 -16 13 -32 14 -35 13
-49 38 -130 44 -145 17 -37 24 -60 23 -67 -1 -4 3 -20 10 -35 6 -15 13 -39 15
-53 2 -13 9 -30 15 -37 6 -7 8 -13 5 -13 -3 0 1 -20 8 -44 14 -44 10 -86 -6
-86 -5 0 -8 -4 -6 -8 1 -5 -15 -27 -35 -50 -21 -23 -38 -41 -38 -39 0 2 -38
-35 -85 -81 -47 -45 -85 -87 -85 -93 0 -5 -3 -8 -7 -7 -5 1 -35 -23 -68 -55
-32 -31 -63 -57 -67 -57 -4 0 -8 -7 -8 -15 0 -8 -6 -15 -14 -15 -8 0 -18 -4
-21 -10 -4 -7 165 -10 501 -10 279 0 505 2 502 5 -3 3 10 21 29 41 18 20 31
40 28 45 -4 5 -2 9 3 9 17 0 50 83 46 115 -6 49 -20 120 -24 120 -2 0 -11 36
-14 60 -2 11 -8 31 -13 45 -6 14 -8 31 -6 37 3 7 0 13 -7 13 -6 0 -9 3 -7 8 3
4 0 18 -5 32 -10 23 -18 58 -20 88 -1 6 -6 12 -11 12 -5 0 -7 9 -4 20 3 11 1
20 -4 20 -4 0 -6 6 -3 14 3 8 1 23 -5 34 -7 13 -7 23 2 32 9 10 9 11 0 6 -9
-5 -13 0 -14 16 0 13 -3 32 -5 43 -7 31 -17 115 -18 162 0 24 -4 43 -9 43 -4
0 -5 11 -3 25 3 13 1 27 -3 29 -4 3 -7 15 -6 28 1 13 -1 30 -6 39 -5 10 -3 21
4 29 10 10 9 11 -2 5 -11 -6 -13 -4 -8 7 3 9 3 19 0 22 -4 3 -7 18 -9 33 -1
16 -5 42 -8 58 -4 17 -7 42 -8 58 -1 15 -6 27 -11 27 -5 0 -7 6 -4 14 3 8 3
17 0 20 -4 3 -8 18 -10 33 -5 42 -8 57 -14 68 -3 6 -4 20 -3 32 0 13 -1 23 -5
23 -3 0 -6 10 -7 23 0 12 -4 42 -8 67 -4 25 -9 61 -11 80 -2 19 -4 35 -5 35
-1 0 -3 14 -3 30 -1 17 -5 35 -10 42 -4 6 -3 14 3 18 6 4 8 11 4 16 -19 31 -1
112 20 92 3 -4 6 -1 6 5 0 7 9 12 19 12 11 0 21 4 23 9 2 5 9 11 17 13 37 9
156 129 173 174 6 19 16 34 20 34 4 0 8 3 7 8 -2 15 14 52 23 52 5 0 6 5 3 10
-4 6 -3 16 2 23 10 13 15 44 16 90 0 17 3 24 7 17 4 -7 9 23 10 66 1 66 5 120
9 131 3 9 81 -42 81 -53 0 -8 5 -14 12 -14 6 0 9 -3 6 -6 -4 -3 0 -17 7 -31 8
-15 12 -30 9 -35 -3 -4 3 -8 13 -9 10 0 13 -3 6 -5 -8 -4 -9 -13 -3 -30 5 -13
6 -24 2 -24 -4 0 -7 -12 -6 -27 1 -16 3 -39 3 -53 1 -20 3 -22 11 -9 10 18 7
132 -5 164 -4 11 -9 27 -13 35 -7 19 -6 18 -16 58 -4 19 -12 29 -18 26 -6 -4
-8 -2 -4 4 7 11 -90 214 -105 220 -5 2 -9 12 -9 23 0 10 -4 19 -8 19 -5 0 -14
16 -22 35 -8 19 -17 35 -22 35 -4 0 -8 7 -8 15 0 8 -5 15 -12 15 -6 0 -9 3 -6
6 5 5 -94 161 -111 174 -3 3 -7 12 -9 20 -2 8 -8 17 -13 18 -5 2 -9 8 -9 13 0
5 -21 42 -47 82 -27 40 -54 85 -62 100 -8 15 -18 27 -23 27 -5 0 -6 5 -3 10 3
6 1 10 -4 10 -6 0 -11 7 -11 15 0 8 -4 15 -10 15 -5 0 -10 7 -10 15 0 9 -6 18
-14 21 -8 3 -13 11 -10 18 3 7 -2 19 -11 26 -8 7 -15 17 -15 22 0 6 -9 23 -21
39 -11 16 -17 29 -13 29 4 0 0 8 -8 18 -9 9 -29 58 -46 107 -35 103 -43 134
-48 190 -4 50 -12 119 -20 188 -4 28 -8 70 -9 92 -2 22 -4 40 -5 40 -1 0 -4 9
-5 20 -8 75 -16 126 -23 166 -5 25 -8 53 -6 62 15 101 19 231 8 248 -2 4 0 10
5 14 6 3 7 16 3 28 -4 12 -7 59 -7 104 0 46 -2 83 -5 83 -3 0 -4 17 -4 37 1
21 -3 46 -8 56 -6 11 -5 17 3 17 8 0 8 4 2 13 -6 6 -10 19 -10 27 -1 33 -15
106 -24 116 -5 6 -6 14 -2 17 3 4 0 13 -7 22 -7 8 -10 15 -7 15 8 0 -30 110
-44 126 -6 8 -8 14 -4 14 4 0 2 6 -4 14 -9 11 -9 15 1 19 8 4 7 6 -4 6 -10 1
-17 4 -16 9 3 16 -15 62 -25 62 -6 0 -8 3 -4 6 7 7 -61 135 -77 146 -6 4 -7 8
-2 8 5 0 3 7 -4 15 -7 8 -9 15 -6 15 4 0 -5 11 -20 25 -15 14 -24 25 -20 25 4
0 -16 30 -45 68 -34 45 -68 77 -104 97 -29 17 -64 42 -77 58 -14 15 -30 27
-37 27 -6 0 -11 4 -11 8 0 14 -74 51 -111 55 -41 4 -83 -8 -74 -23 3 -5 1 -10
-4 -10 -6 0 -11 -6 -11 -14 0 -9 -25 0 -77 30 -42 24 -120 58 -172 76 -99 33
-106 35 -156 42 -16 3 -30 5 -30 6 0 3 -103 13 -150 14 -27 1 -52 4 -55 8 -3
4 -11 4 -17 0z m-1107 -1685 c8 -16 11 -34 7 -40 -3 -7 -3 -9 2 -5 4 4 19 -16
33 -45 14 -29 28 -54 32 -57 3 -3 22 -39 43 -81 41 -85 41 -92 -9 -186 -13
-24 -24 -49 -24 -56 0 -7 -11 -25 -24 -42 l-24 -30 -19 40 c-10 22 -21 42 -25
43 -5 2 -8 11 -8 21 0 9 -4 21 -10 27 -5 5 -10 24 -12 42 -1 17 -5 32 -8 32
-12 0 -18 350 -6 405 l8 40 15 -40 c8 -22 21 -53 29 -68z m2426 -511 c7 4 8 2
4 -4 -8 -13 15 -92 27 -92 5 0 6 -4 3 -8 -3 -5 1 -21 9 -36 8 -15 21 -49 29
-74 8 -26 26 -78 41 -117 15 -38 28 -74 29 -80 3 -12 14 -41 26 -70 18 -43 23
-60 22 -67 -1 -5 2 -8 8 -8 6 0 9 -3 8 -7 -1 -5 4 -21 11 -38 20 -48 121 -245
131 -255 3 -3 11 -17 19 -32 8 -16 18 -28 23 -28 4 0 8 -7 8 -15 0 -8 5 -15
10 -15 6 0 10 -5 10 -11 0 -6 6 -16 13 -24 28 -30 47 -56 47 -66 0 -5 5 -7 10
-4 6 3 10 0 10 -8 0 -7 9 -23 20 -35 11 -12 20 -26 20 -32 0 -6 8 -22 17 -37
10 -14 18 -31 19 -37 1 -6 4 -20 6 -31 2 -11 7 -26 11 -32 5 -7 6 -17 2 -22
-3 -5 -1 -12 3 -15 5 -3 7 -17 4 -31 -2 -14 0 -25 5 -25 9 0 11 -16 16 -160 2
-52 1 -99 -2 -105 -3 -5 -6 -12 -6 -15 -1 -4 -15 -84 -19 -110 -1 -3 -4 -9 -7
-15 -4 -5 -12 -28 -19 -50 -17 -55 -66 -139 -100 -174 -16 -16 -27 -31 -24
-33 2 -3 -5 -5 -17 -4 -23 1 -26 7 -33 88 -2 26 -8 53 -12 59 -5 8 -3 9 6 4 9
-5 11 -4 6 4 -4 6 -9 26 -11 44 -4 33 -14 98 -22 152 -2 17 -5 40 -5 53 -1 12
-5 22 -9 22 -4 0 -7 10 -7 23 -1 21 -3 34 -16 112 -3 17 -7 50 -8 75 -2 25 -6
47 -10 51 -4 3 -9 19 -11 37 -2 18 -7 35 -10 39 -4 3 -7 15 -7 25 0 10 -5 18
-11 18 -6 0 -9 7 -6 15 4 8 2 17 -3 20 -5 3 -20 30 -34 60 -14 30 -30 55 -35
55 -6 0 -10 4 -8 8 1 4 -9 29 -23 54 -26 50 -59 72 -101 69 -22 -2 -29 4 -39
31 -8 18 -14 40 -15 49 -1 8 -6 33 -10 55 -9 46 -17 118 -18 157 0 15 -4 27
-7 27 -4 0 -7 19 -8 43 0 23 -3 117 -5 208 -4 146 0 221 17 309 2 14 5 36 6
50 1 14 4 19 7 12 2 -6 10 -9 15 -6z m-2086 -269 l2 -78 -52 6 c-28 4 -66 8
-83 9 -18 0 -33 4 -33 8 0 3 -13 1 -30 -5 -16 -6 -32 -8 -36 -4 -11 11 18 58
41 67 12 4 27 15 34 23 7 9 26 19 42 22 17 4 42 13 57 21 49 26 57 17 58 -69z
m-76 -349 c-6 -13 -13 -31 -16 -40 -4 -10 -10 -18 -15 -18 -5 0 -9 -6 -9 -13
0 -8 -9 -24 -20 -37 -11 -12 -17 -27 -14 -31 3 -5 0 -9 -6 -9 -6 0 -9 -4 -6
-9 3 -5 0 -11 -7 -14 -6 -3 -21 -22 -32 -43 -11 -22 -24 -42 -30 -46 -5 -4 -7
-8 -3 -8 4 0 -4 -12 -17 -26 -14 -15 -25 -35 -25 -44 0 -19 -40 -44 -73 -45
-30 -2 -58 -15 -52 -25 3 -5 1 -11 -4 -15 -6 -3 -7 -13 -4 -22 4 -11 3 -14 -5
-9 -12 7 -15 -1 -15 -36 0 -10 -4 -18 -9 -18 -5 0 -7 -4 -3 -9 3 -5 -1 -16 -9
-24 -8 -8 -13 -17 -10 -20 9 -8 -50 -119 -91 -172 -20 -26 -43 -61 -51 -76 -8
-16 -17 -29 -20 -29 -3 0 -2 5 2 11 3 6 1 14 -5 18 -6 4 -14 25 -17 47 -26
181 -26 188 11 273 76 175 85 190 133 223 26 17 63 48 83 67 20 20 70 65 110
101 40 36 80 72 89 80 17 17 80 37 122 39 25 1 26 -1 18 -21z m240 -227 c11
-37 20 -76 20 -85 0 -9 4 -16 10 -16 22 0 -4 -27 -58 -62 -54 -35 -60 -36
-130 -33 -41 2 -76 5 -78 8 -2 2 5 21 16 42 11 22 20 35 20 30 0 -6 22 33 49
85 26 52 58 112 70 133 12 21 18 43 15 49 -4 6 -3 8 3 5 6 -4 14 1 19 11 5 12
10 -1 15 -41 5 -32 18 -88 29 -126z m-758 -620 c-8 -4 -13 -11 -12 -15 1 -4
-1 -12 -3 -19 -3 -6 -6 -3 -6 9 -1 23 7 34 23 34 6 0 5 -4 -2 -9z"/>
</g>
</svg>
